<svg width="80" height="80" viewBox="0 0 80 80" fill="none" xmlns="http://www.w3.org/2000/svg">
<g clip-path="url(#clip0_96_112)">
<path d="M61.25 0H18.75C8.39466 0 0 8.39466 0 18.75V61.25C0 71.6053 8.39466 80 18.75 80H61.25C71.6053 80 80 71.6053 80 61.25V18.75C80 8.39466 71.6053 0 61.25 0Z" fill="white"/>
<path d="M61.25 0H18.75C8.39466 0 0 8.39466 0 18.75V61.25C0 71.6053 8.39466 80 18.75 80H61.25C71.6053 80 80 71.6053 80 61.25V18.75C80 8.39466 71.6053 0 61.25 0Z" fill="#0A66C2"/>
<path d="M57.7234 68.0266H66.8703C67.2018 68.0266 67.5197 67.8949 67.7541 67.6606C67.9885 67.4262 68.1202 67.1083 68.1203 66.7769L68.125 47.4513C68.125 37.3503 65.9484 29.5863 54.1444 29.5863C49.6572 29.4194 45.4256 31.7325 43.1422 35.595C43.131 35.6138 43.114 35.6284 43.0938 35.6366C43.0736 35.6448 43.0512 35.6461 43.0301 35.6404C43.0091 35.6347 42.9904 35.6223 42.9771 35.605C42.9637 35.5877 42.9564 35.5665 42.9563 35.5447V31.7688C42.9563 31.4372 42.8246 31.1193 42.5901 30.8849C42.3557 30.6504 42.0378 30.5188 41.7063 30.5188H33.0259C32.6944 30.5188 32.3765 30.6504 32.1421 30.8849C31.9076 31.1193 31.7759 31.4372 31.7759 31.7688V66.775C31.7759 67.1065 31.9076 67.4245 32.1421 67.6589C32.3765 67.8933 32.6944 68.025 33.0259 68.025H42.1722C42.5037 68.025 42.8217 67.8933 43.0561 67.6589C43.2905 67.4245 43.4222 67.1065 43.4222 66.775V49.4709C43.4222 44.5781 44.3503 39.8397 50.4163 39.8397C56.3959 39.8397 56.4734 45.4384 56.4734 49.7878V66.7766C56.4734 67.1081 56.6051 67.426 56.8396 67.6604C57.074 67.8949 57.3919 68.0266 57.7234 68.0266ZM11.875 18.6337C11.875 22.3413 14.9272 25.3919 18.635 25.3919C22.3419 25.3916 25.3922 22.3391 25.3922 18.6322C25.3916 14.9253 22.3409 11.875 18.6337 11.875C14.9256 11.875 11.875 14.9262 11.875 18.6337ZM14.0497 68.0266H23.2081C23.5396 68.0266 23.8576 67.8949 24.092 67.6604C24.3264 67.426 24.4581 67.1081 24.4581 66.7766V31.7688C24.4581 31.4372 24.3264 31.1193 24.092 30.8849C23.8576 30.6504 23.5396 30.5188 23.2081 30.5188H14.0497C13.7182 30.5188 13.4002 30.6504 13.1658 30.8849C12.9314 31.1193 12.7997 31.4372 12.7997 31.7688V66.7766C12.7997 67.1081 12.9314 67.426 13.1658 67.6604C13.4002 67.8949 13.7182 68.0266 14.0497 68.0266Z" fill="white"/>
</g>
<defs>
<clipPath id="clip0_96_112">
<rect width="80" height="80" fill="white"/>
</clipPath>
</defs>
</svg>
